MFile 1 2 480
MTrk
0 TimeSig 6/8 24 8
0 KeySig 1 major
0 Tempo 1071429
0 Par ch=1 c=121 v=0
0 PrCh ch=1 p=1
0 Par ch=1 c=7 v=100
0 Par ch=1 c=10 v=64
0 Par ch=1 c=91 v=24
0 Par ch=1 c=93 v=11
0 Meta 0x21 00
2880 On ch=1 n=47 v=49
3119 On ch=1 n=47 v=0
3120 On ch=1 n=50 v=49
3359 On ch=1 n=50 v=0
3360 On ch=1 n=55 v=49
3599 On ch=1 n=55 v=0
3600 On ch=1 n=57 v=49
4079 On ch=1 n=57 v=0
4080 On ch=1 n=59 v=49
4319 On ch=1 n=59 v=0
4320 On ch=1 n=59 v=49
5687 On ch=1 n=59 v=0
6000 On ch=1 n=62 v=49
6239 On ch=1 n=62 v=0
6240 On ch=1 n=55 v=49
6479 On ch=1 n=55 v=0
6480 On ch=1 n=57 v=49
6959 On ch=1 n=57 v=0
6960 On ch=1 n=59 v=49
7187 On ch=1 n=59 v=0
7200 On ch=1 n=59 v=49
8567 On ch=1 n=59 v=0
8640 On ch=1 n=47 v=49
8879 On ch=1 n=47 v=0
8880 On ch=1 n=50 v=49
8999 On ch=1 n=50 v=0
9000 On ch=1 n=55 v=49
9119 On ch=1 n=55 v=0
9120 On ch=1 n=55 v=49
9239 On ch=1 n=55 v=0
9240 On ch=1 n=57 v=49
9359 On ch=1 n=57 v=0
9360 On ch=1 n=57 v=49
9839 On ch=1 n=57 v=0
9840 On ch=1 n=59 v=49
10079 On ch=1 n=59 v=0
10080 On ch=1 n=60 v=49
10080 On ch=1 n=52 v=49
10559 On ch=1 n=52 v=0
10560 On ch=1 n=54 v=49
10799 On ch=1 n=60 v=0
10799 On ch=1 n=54 v=0
10800 On ch=1 n=59 v=49
10800 On ch=1 n=55 v=49
11027 On ch=1 n=55 v=0
11040 On ch=1 n=50 v=49
11267 On ch=1 n=50 v=0
11280 On ch=1 n=47 v=49
11483 On ch=1 n=59 v=0
11507 On ch=1 n=47 v=0
11520 On ch=1 n=50 v=49
11747 On ch=1 n=50 v=0
11760 On ch=1 n=60 v=49
11760 On ch=1 n=64 v=49
11999 On ch=1 n=60 v=0
11999 On ch=1 n=64 v=0
12000 On ch=1 n=59 v=49
12000 On ch=1 n=62 v=49
12239 On ch=1 n=59 v=0
12239 On ch=1 n=62 v=0
12240 On ch=1 n=54 v=49
12240 On ch=1 n=57 v=49
12839 On ch=1 n=54 v=0
12839 On ch=1 n=57 v=0
12840 On ch=1 n=52 v=49
12840 On ch=1 n=55 v=49
12959 On ch=1 n=52 v=0
12959 On ch=1 n=55 v=0
12960 On ch=1 n=54 v=49
12960 On ch=1 n=57 v=49
14327 On ch=1 n=54 v=0
14327 On ch=1 n=57 v=0
14400 On ch=1 n=47 v=49
14639 On ch=1 n=47 v=0
14640 On ch=1 n=50 v=49
14879 On ch=1 n=50 v=0
14880 On ch=1 n=55 v=49
15119 On ch=1 n=55 v=0
15120 On ch=1 n=54 v=49
15120 On ch=1 n=57 v=49
15599 On ch=1 n=54 v=0
15599 On ch=1 n=57 v=0
15600 On ch=1 n=55 v=49
15600 On ch=1 n=59 v=49
15839 On ch=1 n=55 v=0
15839 On ch=1 n=59 v=0
15840 On ch=1 n=55 v=49
15840 On ch=1 n=59 v=49
17279 On ch=1 n=55 v=0
17279 On ch=1 n=59 v=0
17520 On ch=1 n=55 v=49
17520 On ch=1 n=62 v=49
17759 On ch=1 n=55 v=0
17759 On ch=1 n=62 v=0
17760 On ch=1 n=50 v=49
17760 On ch=1 n=55 v=49
17999 On ch=1 n=50 v=0
17999 On ch=1 n=55 v=0
18000 On ch=1 n=54 v=49
18000 On ch=1 n=57 v=49
18479 On ch=1 n=54 v=0
18479 On ch=1 n=57 v=0
18480 On ch=1 n=55 v=49
18480 On ch=1 n=59 v=49
18719 On ch=1 n=55 v=0
18719 On ch=1 n=59 v=0
18720 On ch=1 n=55 v=49
18720 On ch=1 n=59 v=49
20087 On ch=1 n=55 v=0
20087 On ch=1 n=59 v=0
20160 On ch=1 n=47 v=49
20279 On ch=1 n=47 v=0
20280 On ch=1 n=50 v=49
20399 On ch=1 n=50 v=0
20400 On ch=1 n=50 v=49
20519 On ch=1 n=50 v=0
20520 On ch=1 n=55 v=49
20639 On ch=1 n=55 v=0
20640 On ch=1 n=55 v=49
20759 On ch=1 n=55 v=0
20760 On ch=1 n=57 v=49
20879 On ch=1 n=57 v=0
20880 On ch=1 n=54 v=49
20880 On ch=1 n=57 v=49
21359 On ch=1 n=54 v=0
21359 On ch=1 n=57 v=0
21360 On ch=1 n=55 v=49
21360 On ch=1 n=59 v=49
21599 On ch=1 n=55 v=0
21599 On ch=1 n=59 v=0
21600 On ch=1 n=60 v=49
21600 On ch=1 n=52 v=49
21839 On ch=1 n=52 v=0
21840 On ch=1 n=55 v=49
22079 On ch=1 n=55 v=0
22080 On ch=1 n=54 v=49
22319 On ch=1 n=60 v=0
22319 On ch=1 n=54 v=0
22320 On ch=1 n=59 v=49
22320 On ch=1 n=55 v=49
23003 On ch=1 n=59 v=0
23003 On ch=1 n=55 v=0
23280 On ch=1 n=60 v=49
23280 On ch=1 n=64 v=49
23519 On ch=1 n=60 v=0
23519 On ch=1 n=64 v=0
23520 On ch=1 n=59 v=49
23520 On ch=1 n=62 v=49
23759 On ch=1 n=59 v=0
23759 On ch=1 n=62 v=0
23760 On ch=1 n=54 v=49
23760 On ch=1 n=57 v=49
24239 On ch=1 n=54 v=0
24240 On ch=1 n=54 v=49
24359 On ch=1 n=57 v=0
24359 On ch=1 n=54 v=0
24360 On ch=1 n=55 v=49
24360 On ch=1 n=59 v=49
24479 On ch=1 n=55 v=0
24479 On ch=1 n=59 v=0
24480 On ch=1 n=55 v=49
24480 On ch=1 n=59 v=49
25163 On ch=1 n=55 v=0
25163 On ch=1 n=59 v=0
25440 On ch=1 n=55 v=64
25440 On ch=1 n=59 v=64
25667 On ch=1 n=55 v=0
25667 On ch=1 n=59 v=0
25680 On ch=1 n=54 v=64
25680 On ch=1 n=60 v=64
25907 On ch=1 n=54 v=0
25907 On ch=1 n=60 v=0
25920 On ch=1 n=55 v=64
25920 On ch=1 n=62 v=64
25920 On ch=1 n=55 v=64
26603 On ch=1 n=55 v=0
26603 On ch=1 n=62 v=0
26603 On ch=1 n=55 v=0
26640 On ch=1 n=62 v=64
26640 On ch=1 n=55 v=64
27095 On ch=1 n=55 v=0
27120 On ch=1 n=53 v=64
27323 On ch=1 n=62 v=0
27347 On ch=1 n=53 v=0
27360 On ch=1 n=62 v=64
27360 On ch=1 n=53 v=64
27587 On ch=1 n=62 v=0
27587 On ch=1 n=53 v=0
27600 On ch=1 n=60 v=64
27600 On ch=1 n=52 v=64
27827 On ch=1 n=60 v=0
27840 On ch=1 n=59 v=64
28055 On ch=1 n=52 v=0
28067 On ch=1 n=59 v=0
28080 On ch=1 n=59 v=64
28080 On ch=1 n=50 v=64
28307 On ch=1 n=59 v=0
28307 On ch=1 n=50 v=0
28320 On ch=1 n=57 v=64
28320 On ch=1 n=48 v=64
28547 On ch=1 n=57 v=0
28560 On ch=1 n=55 v=64
28775 On ch=1 n=48 v=0
28787 On ch=1 n=55 v=0
28800 On ch=1 n=50 v=64
28800 On ch=1 n=47 v=64
29027 On ch=1 n=50 v=0
29040 On ch=1 n=55 v=64
29267 On ch=1 n=55 v=0
29280 On ch=1 n=59 v=64
29483 On ch=1 n=47 v=0
29507 On ch=1 n=59 v=0
29520 On ch=1 n=57 v=64
29520 On ch=1 n=54 v=64
29747 On ch=1 n=57 v=0
29760 On ch=1 n=59 v=64
29987 On ch=1 n=59 v=0
30000 On ch=1 n=60 v=64
30203 On ch=1 n=54 v=0
30227 On ch=1 n=60 v=0
30240 On ch=1 n=55 v=64
30240 On ch=1 n=62 v=64
30923 On ch=1 n=55 v=0
30923 On ch=1 n=62 v=0
30960 On ch=1 n=55 v=64
30960 On ch=1 n=64 v=64
31643 On ch=1 n=55 v=0
31643 On ch=1 n=64 v=0
31680 TimeSig 9/8 24 8
31680 On ch=1 n=57 v=64
31680 On ch=1 n=66 v=64
32363 On ch=1 n=57 v=0
32363 On ch=1 n=66 v=0
32400 On ch=1 n=59 v=64
32400 On ch=1 n=67 v=64
33767 On ch=1 n=59 v=0
33767 On ch=1 n=67 v=0
33840 TimeSig 6/8 24 8
33840 On ch=1 n=62 v=49
33840 On ch=1 n=62 v=49
34067 On ch=1 n=62 v=0
34080 On ch=1 n=67 v=49
34307 On ch=1 n=67 v=0
34320 On ch=1 n=71 v=49
34523 On ch=1 n=62 v=0
34547 On ch=1 n=71 v=0
34560 On ch=1 n=69 v=49
34560 On ch=1 n=62 v=49
35015 On ch=1 n=69 v=0
35015 On ch=1 n=62 v=0
35040 On ch=1 n=67 v=49
35040 On ch=1 n=62 v=49
35267 On ch=1 n=67 v=0
35267 On ch=1 n=62 v=0
35280 On ch=1 n=67 v=49
35280 On ch=1 n=62 v=49
36191 On ch=1 n=67 v=0
36191 On ch=1 n=62 v=0
36720 On ch=1 n=59 v=49
36959 On ch=1 n=59 v=0
36960 On ch=1 n=62 v=49
37199 On ch=1 n=62 v=0
37200 On ch=1 n=67 v=49
37439 On ch=1 n=67 v=0
37440 On ch=1 n=66 v=49
37440 On ch=1 n=69 v=49
37919 On ch=1 n=66 v=0
37919 On ch=1 n=69 v=0
37920 On ch=1 n=67 v=49
37920 On ch=1 n=71 v=49
38159 On ch=1 n=67 v=0
38159 On ch=1 n=71 v=0
38160 On ch=1 n=67 v=49
38160 On ch=1 n=71 v=49
39527 On ch=1 n=67 v=0
39527 On ch=1 n=71 v=0
39840 On ch=1 n=67 v=49
39840 On ch=1 n=74 v=49
40079 On ch=1 n=67 v=0
40079 On ch=1 n=74 v=0
40080 On ch=1 n=62 v=49
40080 On ch=1 n=67 v=49
40319 On ch=1 n=62 v=0
40319 On ch=1 n=67 v=0
40320 On ch=1 n=66 v=49
40320 On ch=1 n=69 v=49
40799 On ch=1 n=66 v=0
40799 On ch=1 n=69 v=0
40800 On ch=1 n=67 v=49
40800 On ch=1 n=71 v=49
41039 On ch=1 n=67 v=0
41039 On ch=1 n=71 v=0
41040 On ch=1 n=67 v=49
41040 On ch=1 n=71 v=49
42407 On ch=1 n=67 v=0
42407 On ch=1 n=71 v=0
42480 On ch=1 n=59 v=49
42719 On ch=1 n=59 v=0
42720 On ch=1 n=62 v=49
42839 On ch=1 n=62 v=0
42840 On ch=1 n=67 v=49
42959 On ch=1 n=67 v=0
42960 On ch=1 n=67 v=49
43079 On ch=1 n=67 v=0
43080 On ch=1 n=69 v=49
43199 On ch=1 n=69 v=0
43200 On ch=1 n=66 v=49
43200 On ch=1 n=69 v=49
43679 On ch=1 n=66 v=0
43679 On ch=1 n=69 v=0
43680 On ch=1 n=67 v=49
43680 On ch=1 n=71 v=49
43919 On ch=1 n=67 v=0
43919 On ch=1 n=71 v=0
43920 On ch=1 n=72 v=49
43920 On ch=1 n=64 v=49
44399 On ch=1 n=64 v=0
44400 On ch=1 n=66 v=49
44639 On ch=1 n=72 v=0
44639 On ch=1 n=66 v=0
44640 On ch=1 n=71 v=49
44640 On ch=1 n=67 v=49
45323 On ch=1 n=71 v=0
45323 On ch=1 n=67 v=0
45600 On ch=1 n=72 v=49
45600 On ch=1 n=76 v=49
45839 On ch=1 n=72 v=0
45839 On ch=1 n=76 v=0
45840 On ch=1 n=71 v=49
45840 On ch=1 n=74 v=49
46079 On ch=1 n=71 v=0
46079 On ch=1 n=74 v=0
46080 On ch=1 n=66 v=49
46080 On ch=1 n=69 v=49
46559 On ch=1 n=66 v=0
46559 On ch=1 n=69 v=0
46560 On ch=1 n=64 v=49
46560 On ch=1 n=67 v=49
46799 On ch=1 n=64 v=0
46799 On ch=1 n=67 v=0
46800 On ch=1 n=66 v=49
46800 On ch=1 n=69 v=49
48167 On ch=1 n=66 v=0
48167 On ch=1 n=69 v=0
48240 On ch=1 n=59 v=49
48479 On ch=1 n=59 v=0
48480 On ch=1 n=62 v=49
48719 On ch=1 n=62 v=0
48720 On ch=1 n=67 v=49
48959 On ch=1 n=67 v=0
48960 On ch=1 n=62 v=49
48960 On ch=1 n=69 v=49
49439 On ch=1 n=62 v=0
49439 On ch=1 n=69 v=0
49440 On ch=1 n=67 v=49
49440 On ch=1 n=71 v=49
49679 On ch=1 n=67 v=0
49679 On ch=1 n=71 v=0
49680 On ch=1 n=67 v=49
49680 On ch=1 n=71 v=49
51047 On ch=1 n=67 v=0
51047 On ch=1 n=71 v=0
51360 On ch=1 n=59 v=49
51360 On ch=1 n=74 v=49
51599 On ch=1 n=59 v=0
51599 On ch=1 n=74 v=0
51600 On ch=1 n=67 v=49
51839 On ch=1 n=67 v=0
51840 On ch=1 n=60 v=49
51840 On ch=1 n=69 v=49
52319 On ch=1 n=60 v=0
52319 On ch=1 n=69 v=0
52320 On ch=1 n=62 v=49
52320 On ch=1 n=71 v=49
52559 On ch=1 n=62 v=0
52559 On ch=1 n=71 v=0
52560 On ch=1 n=62 v=49
52560 On ch=1 n=71 v=49
53927 On ch=1 n=62 v=0
53927 On ch=1 n=71 v=0
54000 On ch=1 n=59 v=49
54119 On ch=1 n=59 v=0
54120 On ch=1 n=62 v=49
54239 On ch=1 n=62 v=0
54240 On ch=1 n=62 v=49
54359 On ch=1 n=62 v=0
54360 On ch=1 n=67 v=49
54479 On ch=1 n=67 v=0
54480 On ch=1 n=67 v=49
54599 On ch=1 n=67 v=0
54600 On ch=1 n=69 v=49
54719 On ch=1 n=69 v=0
54720 On ch=1 n=66 v=49
54720 On ch=1 n=69 v=49
55199 On ch=1 n=66 v=0
55199 On ch=1 n=69 v=0
55200 On ch=1 n=67 v=49
55200 On ch=1 n=71 v=49
55439 On ch=1 n=67 v=0
55439 On ch=1 n=71 v=0
55440 On ch=1 n=64 v=49
55440 On ch=1 n=72 v=49
56159 On ch=1 n=64 v=0
56159 On ch=1 n=72 v=0
56160 On ch=1 n=62 v=49
56160 On ch=1 n=71 v=49
56843 On ch=1 n=62 v=0
56843 On ch=1 n=71 v=0
57120 On ch=1 n=72 v=49
57120 On ch=1 n=76 v=49
57359 On ch=1 n=72 v=0
57359 On ch=1 n=76 v=0
57360 On ch=1 n=71 v=49
57360 On ch=1 n=74 v=49
57599 On ch=1 n=71 v=0
57599 On ch=1 n=74 v=0
57600 On ch=1 n=66 v=49
57600 On ch=1 n=69 v=49
58079 On ch=1 n=66 v=0
58079 On ch=1 n=69 v=0
58080 On ch=1 n=67 v=49
58080 On ch=1 n=71 v=49
58319 On ch=1 n=67 v=0
58319 On ch=1 n=71 v=0
58320 On ch=1 n=67 v=49
58320 On ch=1 n=71 v=49
59003 On ch=1 n=67 v=0
59003 On ch=1 n=71 v=0
59280 On ch=1 n=67 v=49
59280 On ch=1 n=71 v=49
59507 On ch=1 n=67 v=0
59507 On ch=1 n=71 v=0
59520 On ch=1 n=66 v=49
59520 On ch=1 n=72 v=49
59747 On ch=1 n=66 v=0
59747 On ch=1 n=72 v=0
59760 On ch=1 n=67 v=49
59760 On ch=1 n=74 v=49
60443 On ch=1 n=67 v=0
60443 On ch=1 n=74 v=0
60480 On ch=1 n=74 v=49
60480 On ch=1 n=62 v=49
60707 On ch=1 n=62 v=0
60720 On ch=1 n=67 v=49
60947 On ch=1 n=67 v=0
60960 On ch=1 n=65 v=49
61163 On ch=1 n=74 v=0
61187 On ch=1 n=65 v=0
61200 On ch=1 n=65 v=49
61200 On ch=1 n=74 v=49
61439 On ch=1 n=65 v=0
61439 On ch=1 n=74 v=0
61440 On ch=1 n=64 v=49
61440 On ch=1 n=72 v=49
61679 On ch=1 n=64 v=0
61679 On ch=1 n=72 v=0
61680 On ch=1 n=62 v=49
61680 On ch=1 n=71 v=49
61907 On ch=1 n=62 v=0
61907 On ch=1 n=71 v=0
61920 On ch=1 n=62 v=49
61920 On ch=1 n=71 v=49
62159 On ch=1 n=62 v=0
62159 On ch=1 n=71 v=0
62160 On ch=1 n=60 v=49
62160 On ch=1 n=69 v=49
62399 On ch=1 n=60 v=0
62399 On ch=1 n=69 v=0
62400 On ch=1 n=59 v=49
62400 On ch=1 n=67 v=49
62627 On ch=1 n=59 v=0
62627 On ch=1 n=67 v=0
62640 On ch=1 n=62 v=49
62640 On ch=1 n=59 v=49
62879 On ch=1 n=62 v=0
62880 On ch=1 n=67 v=49
63119 On ch=1 n=67 v=0
63120 On ch=1 n=71 v=49
63359 On ch=1 n=59 v=0
63359 On ch=1 n=71 v=0
63360 On ch=1 n=69 v=49
63360 On ch=1 n=66 v=49
63587 On ch=1 n=69 v=0
63587 On ch=1 n=66 v=0
63600 On ch=1 n=71 v=49
63827 On ch=1 n=71 v=0
63840 On ch=1 n=72 v=49
64067 On ch=1 n=72 v=0
64080 On ch=1 n=74 v=49
64080 On ch=1 n=62 v=49
64307 On ch=1 n=62 v=0
64320 On ch=1 n=67 v=49
64547 On ch=1 n=67 v=0
64560 On ch=1 n=66 v=49
64763 On ch=1 n=74 v=0
64787 On ch=1 n=66 v=0
64800 On ch=1 n=76 v=49
64800 On ch=1 n=64 v=49
65027 On ch=1 n=64 v=0
65040 On ch=1 n=69 v=49
65267 On ch=1 n=69 v=0
65280 On ch=1 n=67 v=49
65483 On ch=1 n=76 v=0
65507 On ch=1 n=67 v=0
65520 TimeSig 9/8 24 8
65520 On ch=1 n=78 v=49
65520 On ch=1 n=66 v=49
65747 On ch=1 n=66 v=0
65760 On ch=1 n=71 v=49
65987 On ch=1 n=71 v=0
66000 On ch=1 n=69 v=49
66203 On ch=1 n=78 v=0
66227 On ch=1 n=69 v=0
66240 On ch=1 n=71 v=49
66240 On ch=1 n=76 v=49
66240 On ch=1 n=79 v=49
66240 On ch=1 n=67 v=49
67607 On ch=1 n=71 v=0
67607 On ch=1 n=76 v=0
67607 On ch=1 n=79 v=0
67607 On ch=1 n=67 v=0
67680 TimeSig 6/8 24 8
67680 On ch=1 n=74 v=49
67680 On ch=1 n=71 v=49
67919 On ch=1 n=74 v=0
67920 On ch=1 n=79 v=49
68159 On ch=1 n=79 v=0
68160 On ch=1 n=83 v=49
68399 On ch=1 n=71 v=0
68399 On ch=1 n=83 v=0
68400 On ch=1 n=81 v=49
68400 On ch=1 n=74 v=49
68879 On ch=1 n=81 v=0
68880 On ch=1 n=79 v=49
69119 On ch=1 n=74 v=0
69119 On ch=1 n=79 v=0
69120 On ch=1 n=74 v=49
69120 On ch=1 n=79 v=49
69803 On ch=1 n=74 v=0
69803 On ch=1 n=79 v=0
70080 On ch=1 n=71 v=49
70307 On ch=1 n=71 v=0
70320 On ch=1 n=72 v=49
70547 On ch=1 n=72 v=0
70560 On ch=1 n=67 v=49
70560 On ch=1 n=71 v=49
70560 On ch=1 n=74 v=49
71243 On ch=1 n=67 v=0
71243 On ch=1 n=71 v=0
71243 On ch=1 n=74 v=0
71280 On ch=1 n=72 v=49
71280 On ch=1 n=76 v=49
71963 On ch=1 n=72 v=0
71963 On ch=1 n=76 v=0
72000 On ch=1 n=67 v=49
72000 On ch=1 n=71 v=49
72000 On ch=1 n=74 v=49
72683 On ch=1 n=67 v=0
72683 On ch=1 n=71 v=0
72683 On ch=1 n=74 v=0
72960 On ch=1 n=67 v=49
73187 On ch=1 n=67 v=0
73200 On ch=1 n=69 v=49
73427 On ch=1 n=69 v=0
73440 On ch=1 n=67 v=49
73440 On ch=1 n=71 v=49
73920 On ch=1 n=62 v=49
74123 On ch=1 n=67 v=0
74123 On ch=1 n=71 v=0
74147 On ch=1 n=62 v=0
74160 On ch=1 n=72 v=49
74160 On ch=1 n=64 v=49
74615 On ch=1 n=64 v=0
74640 On ch=1 n=66 v=49
74843 On ch=1 n=72 v=0
74867 On ch=1 n=66 v=0
74880 On ch=1 n=71 v=49
74880 On ch=1 n=67 v=49
75791 On ch=1 n=71 v=0
75791 On ch=1 n=67 v=0
75840 On ch=1 n=62 v=49
76067 On ch=1 n=62 v=0
76080 On ch=1 n=66 v=49
76307 On ch=1 n=66 v=0
76320 On ch=1 n=67 v=49
76661 On ch=1 n=67 v=0
76680 On ch=1 n=69 v=49
76793 On ch=1 n=69 v=0
76800 On ch=1 n=71 v=49
77027 On ch=1 n=71 v=0
77040 On ch=1 n=71 v=49
77267 On ch=1 n=71 v=0
77280 On ch=1 n=72 v=49
77507 On ch=1 n=72 v=0
77520 On ch=1 n=74 v=49
77747 On ch=1 n=74 v=0
77760 On ch=1 n=74 v=49
77760 On ch=1 n=64 v=49
77760 On ch=1 n=69 v=49
78101 On ch=1 n=74 v=0
78120 On ch=1 n=72 v=49
78233 On ch=1 n=72 v=0
78240 On ch=1 n=71 v=49
78443 On ch=1 n=64 v=0
78443 On ch=1 n=69 v=0
78467 On ch=1 n=71 v=0
78480 On ch=1 n=69 v=49
78480 On ch=1 n=66 v=49
79163 On ch=1 n=69 v=0
79163 On ch=1 n=66 v=0
79200 On ch=1 n=74 v=49
79200 On ch=1 n=64 v=49
79200 On ch=1 n=69 v=49
79439 On ch=1 n=74 v=0
79440 On ch=1 n=72 v=49
79559 On ch=1 n=72 v=0
79560 On ch=1 n=71 v=49
79679 On ch=1 n=64 v=0
79679 On ch=1 n=69 v=0
79679 On ch=1 n=71 v=0
79680 On ch=1 n=69 v=49
79680 On ch=1 n=66 v=49
80147 On ch=1 n=69 v=0
80147 On ch=1 n=66 v=0
80160 On ch=1 n=71 v=49
80387 On ch=1 n=71 v=0
80400 On ch=1 n=72 v=49
80627 On ch=1 n=72 v=0
80640 On ch=1 n=67 v=49
80640 On ch=1 n=71 v=49
80640 On ch=1 n=74 v=49
81323 On ch=1 n=67 v=0
81323 On ch=1 n=71 v=0
81323 On ch=1 n=74 v=0
81360 On ch=1 n=67 v=49
81360 On ch=1 n=72 v=49
81360 On ch=1 n=76 v=49
82043 On ch=1 n=67 v=0
82043 On ch=1 n=72 v=0
82043 On ch=1 n=76 v=0
82080 On ch=1 n=67 v=49
82080 On ch=1 n=71 v=49
82080 On ch=1 n=74 v=49
82763 On ch=1 n=67 v=0
82763 On ch=1 n=71 v=0
82763 On ch=1 n=74 v=0
83040 On ch=1 n=59 v=49
83040 On ch=1 n=67 v=49
83267 On ch=1 n=59 v=0
83267 On ch=1 n=67 v=0
83280 On ch=1 n=60 v=49
83280 On ch=1 n=69 v=49
83507 On ch=1 n=60 v=0
83507 On ch=1 n=69 v=0
83520 On ch=1 n=62 v=49
83520 On ch=1 n=71 v=49
84203 On ch=1 n=62 v=0
84203 On ch=1 n=71 v=0
84240 On ch=1 n=64 v=49
84240 On ch=1 n=72 v=49
84923 On ch=1 n=64 v=0
84923 On ch=1 n=72 v=0
84960 On ch=1 n=62 v=49
84960 On ch=1 n=71 v=49
85643 On ch=1 n=62 v=0
85643 On ch=1 n=71 v=0
85920 On ch=1 n=62 v=49
86147 On ch=1 n=62 v=0
86160 On ch=1 n=66 v=49
86387 On ch=1 n=66 v=0
86400 On ch=1 n=67 v=49
86741 On ch=1 n=67 v=0
86760 On ch=1 n=69 v=49
86873 On ch=1 n=69 v=0
86880 On ch=1 n=71 v=49
87107 On ch=1 n=71 v=0
87120 On ch=1 n=71 v=49
87461 On ch=1 n=71 v=0
87480 On ch=1 n=72 v=49
87593 On ch=1 n=72 v=0
87600 On ch=1 n=74 v=49
87713 On ch=1 n=74 v=0
87720 On ch=1 n=76 v=49
87833 On ch=1 n=76 v=0
87840 On ch=1 n=69 v=49
87840 On ch=1 n=72 v=49
87840 On ch=1 n=77 v=49
88523 On ch=1 n=69 v=0
88523 On ch=1 n=72 v=0
88523 On ch=1 n=77 v=0
88560 On ch=1 n=67 v=49
88560 On ch=1 n=72 v=49
88560 On ch=1 n=76 v=49
89243 On ch=1 n=67 v=0
89243 On ch=1 n=72 v=0
89243 On ch=1 n=76 v=0
89520 On ch=1 n=76 v=49
89520 On ch=1 n=71 v=49
89747 On ch=1 n=76 v=0
89760 On ch=1 n=74 v=49
89975 On ch=1 n=71 v=0
89987 On ch=1 n=74 v=0
90000 On ch=1 n=71 v=49
90227 On ch=1 n=71 v=0
90240 On ch=1 n=67 v=49
90467 On ch=1 n=67 v=0
90480 On ch=1 n=71 v=49
90707 On ch=1 n=71 v=0
90720 On ch=1 n=69 v=49
90720 On ch=1 n=66 v=49
91175 On ch=1 n=66 v=0
91200 On ch=1 n=61 v=49
91200 On ch=1 n=67 v=49
91275 On ch=1 n=61 v=0
91275 On ch=1 n=67 v=0
91280 On ch=1 n=69 v=49
91355 On ch=1 n=69 v=0
91360 On ch=1 n=67 v=49
91435 On ch=1 n=67 v=0
91440 On ch=1 n=62 v=49
91440 On ch=1 n=66 v=49
92087 On ch=1 n=69 v=0
92123 On ch=1 n=62 v=0
92123 On ch=1 n=66 v=0
92160 On ch=1 n=71 v=80
92399 On ch=1 n=71 v=0
92400 On ch=1 n=74 v=80
92639 On ch=1 n=74 v=0
92640 On ch=1 n=67 v=80
92640 On ch=1 n=79 v=80
92879 On ch=1 n=67 v=0
92879 On ch=1 n=79 v=0
92880 On ch=1 n=69 v=80
92880 On ch=1 n=74 v=80
92880 On ch=1 n=78 v=80
92880 On ch=1 n=81 v=80
93359 On ch=1 n=69 v=0
93359 On ch=1 n=74 v=0
93359 On ch=1 n=78 v=0
93359 On ch=1 n=81 v=0
93360 On ch=1 n=71 v=80
93360 On ch=1 n=79 v=80
93360 On ch=1 n=83 v=80
93599 On ch=1 n=71 v=0
93599 On ch=1 n=79 v=0
93599 On ch=1 n=83 v=0
93600 On ch=1 n=71 v=80
93600 On ch=1 n=79 v=80
93600 On ch=1 n=83 v=80
94967 On ch=1 n=71 v=0
94967 On ch=1 n=79 v=0
94967 On ch=1 n=83 v=0
95280 On ch=1 n=74 v=80
95280 On ch=1 n=79 v=80
95280 On ch=1 n=86 v=80
95519 On ch=1 n=74 v=0
95519 On ch=1 n=79 v=0
95519 On ch=1 n=86 v=0
95520 On ch=1 n=67 v=80
95520 On ch=1 n=74 v=80
95520 On ch=1 n=79 v=80
95759 On ch=1 n=67 v=0
95759 On ch=1 n=74 v=0
95759 On ch=1 n=79 v=0
95760 On ch=1 n=69 v=80
95760 On ch=1 n=74 v=80
95760 On ch=1 n=81 v=80
96239 On ch=1 n=69 v=0
96239 On ch=1 n=74 v=0
96239 On ch=1 n=81 v=0
96240 On ch=1 n=71 v=80
96240 On ch=1 n=79 v=80
96240 On ch=1 n=83 v=80
96479 On ch=1 n=71 v=0
96479 On ch=1 n=79 v=0
96479 On ch=1 n=83 v=0
96480 On ch=1 n=71 v=80
96480 On ch=1 n=79 v=80
96480 On ch=1 n=83 v=80
97847 On ch=1 n=71 v=0
97847 On ch=1 n=79 v=0
97847 On ch=1 n=83 v=0
97920 On ch=1 n=71 v=80
98159 On ch=1 n=71 v=0
98160 On ch=1 n=74 v=80
98399 On ch=1 n=74 v=0
98400 On ch=1 n=79 v=80
98639 On ch=1 n=79 v=0
98640 On ch=1 n=69 v=80
98640 On ch=1 n=74 v=80
98640 On ch=1 n=78 v=80
98640 On ch=1 n=81 v=80
99119 On ch=1 n=69 v=0
99119 On ch=1 n=74 v=0
99119 On ch=1 n=78 v=0
99119 On ch=1 n=81 v=0
99120 On ch=1 n=71 v=80
99120 On ch=1 n=83 v=80
99359 On ch=1 n=71 v=0
99359 On ch=1 n=83 v=0
99360 On ch=1 n=72 v=80
99360 On ch=1 n=76 v=80
99360 On ch=1 n=79 v=80
99360 On ch=1 n=84 v=80
100079 On ch=1 n=72 v=0
100079 On ch=1 n=76 v=0
100079 On ch=1 n=79 v=0
100079 On ch=1 n=84 v=0
100080 On ch=1 n=71 v=88
100080 On ch=1 n=74 v=88
100080 On ch=1 n=79 v=88
100080 On ch=1 n=83 v=88
100763 On ch=1 n=71 v=0
100763 On ch=1 n=74 v=0
100763 On ch=1 n=79 v=0
100763 On ch=1 n=83 v=0
101040 On ch=1 n=76 v=96
101040 On ch=1 n=84 v=96
101040 On ch=1 n=88 v=96
101267 On ch=1 n=76 v=0
101267 On ch=1 n=84 v=0
101267 On ch=1 n=88 v=0
101280 On ch=1 n=74 v=96
101280 On ch=1 n=83 v=96
101280 On ch=1 n=86 v=96
101507 On ch=1 n=74 v=0
101507 On ch=1 n=83 v=0
101507 On ch=1 n=86 v=0
101520 On ch=1 n=69 v=96
101520 On ch=1 n=78 v=96
101520 On ch=1 n=81 v=96
102089 On ch=1 n=69 v=0
102089 On ch=1 n=78 v=0
102089 On ch=1 n=81 v=0
102120 On ch=1 n=71 v=96
102120 On ch=1 n=79 v=96
102120 On ch=1 n=83 v=96
102233 On ch=1 n=71 v=0
102233 On ch=1 n=79 v=0
102233 On ch=1 n=83 v=0
102240 On ch=1 n=71 v=96
102240 On ch=1 n=79 v=96
102240 On ch=1 n=83 v=96
103151 On ch=1 n=71 v=0
103151 On ch=1 n=79 v=0
103151 On ch=1 n=83 v=0
103200 On ch=1 n=71 v=96
103200 On ch=1 n=79 v=96
103200 On ch=1 n=83 v=96
103427 On ch=1 n=71 v=0
103427 On ch=1 n=79 v=0
103427 On ch=1 n=83 v=0
103440 On ch=1 n=72 v=96
103440 On ch=1 n=81 v=96
103440 On ch=1 n=84 v=96
103667 On ch=1 n=72 v=0
103667 On ch=1 n=81 v=0
103667 On ch=1 n=84 v=0
103680 On ch=1 n=74 v=96
103680 On ch=1 n=79 v=96
103680 On ch=1 n=86 v=96
104363 On ch=1 n=74 v=0
104363 On ch=1 n=79 v=0
104363 On ch=1 n=86 v=0
104400 On ch=1 n=74 v=96
104400 On ch=1 n=77 v=96
104400 On ch=1 n=86 v=96
105083 On ch=1 n=74 v=0
105083 On ch=1 n=77 v=0
105083 On ch=1 n=86 v=0
105120 On ch=1 n=74 v=96
105120 On ch=1 n=77 v=96
105120 On ch=1 n=86 v=96
105359 On ch=1 n=74 v=0
105359 On ch=1 n=77 v=0
105359 On ch=1 n=86 v=0
105360 On ch=1 n=76 v=96
105360 On ch=1 n=84 v=96
105473 On ch=1 n=76 v=0
105473 On ch=1 n=84 v=0
105480 On ch=1 n=72 v=96
105593 On ch=1 n=72 v=0
105600 On ch=1 n=74 v=96
105600 On ch=1 n=83 v=96
105713 On ch=1 n=74 v=0
105713 On ch=1 n=83 v=0
105720 On ch=1 n=71 v=96
105833 On ch=1 n=71 v=0
105840 On ch=1 n=74 v=96
105840 On ch=1 n=83 v=96
105953 On ch=1 n=74 v=0
105953 On ch=1 n=83 v=0
105960 On ch=1 n=71 v=96
106073 On ch=1 n=71 v=0
106080 On ch=1 n=72 v=96
106080 On ch=1 n=81 v=96
106193 On ch=1 n=72 v=0
106193 On ch=1 n=81 v=0
106200 On ch=1 n=69 v=96
106313 On ch=1 n=69 v=0
106320 On ch=1 n=71 v=96
106320 On ch=1 n=79 v=96
106433 On ch=1 n=71 v=0
106433 On ch=1 n=79 v=0
106440 On ch=1 n=67 v=96
106553 On ch=1 n=67 v=0
106560 On ch=1 n=71 v=96
106560 On ch=1 n=74 v=96
106673 On ch=1 n=71 v=0
106673 On ch=1 n=74 v=0
106680 On ch=1 n=62 v=96
106793 On ch=1 n=62 v=0
106800 On ch=1 n=74 v=96
106800 On ch=1 n=79 v=96
106913 On ch=1 n=74 v=0
106913 On ch=1 n=79 v=0
106920 On ch=1 n=67 v=96
107033 On ch=1 n=67 v=0
107040 On ch=1 n=79 v=96
107040 On ch=1 n=83 v=96
107153 On ch=1 n=79 v=0
107153 On ch=1 n=83 v=0
107160 On ch=1 n=71 v=96
107273 On ch=1 n=71 v=0
107280 On ch=1 n=69 v=96
107280 On ch=1 n=74 v=96
107280 On ch=1 n=78 v=96
107280 On ch=1 n=81 v=96
107507 On ch=1 n=69 v=0
107507 On ch=1 n=74 v=0
107507 On ch=1 n=78 v=0
107507 On ch=1 n=81 v=0
107520 On ch=1 n=71 v=96
107520 On ch=1 n=83 v=96
107747 On ch=1 n=71 v=0
107747 On ch=1 n=83 v=0
107760 On ch=1 n=72 v=96
107760 On ch=1 n=78 v=96
107760 On ch=1 n=81 v=96
107760 On ch=1 n=84 v=96
107987 On ch=1 n=72 v=0
107987 On ch=1 n=78 v=0
107987 On ch=1 n=81 v=0
107987 On ch=1 n=84 v=0
108000 On ch=1 n=74 v=96
108000 On ch=1 n=79 v=96
108000 On ch=1 n=83 v=96
108000 On ch=1 n=86 v=96
108240 On ch=1 n=81 v=96
108353 On ch=1 n=81 v=0
108360 On ch=1 n=69 v=96
108473 On ch=1 n=69 v=0
108480 On ch=1 n=79 v=96
108593 On ch=1 n=79 v=0
108600 On ch=1 n=67 v=96
108683 On ch=1 n=74 v=0
108683 On ch=1 n=79 v=0
108683 On ch=1 n=83 v=0
108683 On ch=1 n=86 v=0
108713 On ch=1 n=67 v=0
108720 On ch=1 n=76 v=96
108720 On ch=1 n=88 v=96
108960 On ch=1 n=81 v=96
109073 On ch=1 n=81 v=0
109080 On ch=1 n=69 v=96
109193 On ch=1 n=69 v=0
109200 On ch=1 n=79 v=96
109313 On ch=1 n=79 v=0
109320 On ch=1 n=67 v=96
109403 On ch=1 n=76 v=0
109403 On ch=1 n=88 v=0
109433 On ch=1 n=67 v=0
109440 TimeSig 9/8 24 8
109440 On ch=1 n=78 v=96
109440 On ch=1 n=90 v=96
109680 On ch=1 n=81 v=96
109793 On ch=1 n=81 v=0
109800 On ch=1 n=69 v=96
109913 On ch=1 n=69 v=0
109920 On ch=1 n=79 v=96
110033 On ch=1 n=79 v=0
110040 On ch=1 n=67 v=96
110123 On ch=1 n=78 v=0
110123 On ch=1 n=90 v=0
110153 On ch=1 n=67 v=0
110160 On ch=1 n=79 v=96
110160 On ch=1 n=83 v=96
110160 On ch=1 n=88 v=96
110160 On ch=1 n=91 v=96
110400 On ch=1 n=81 v=96
110513 On ch=1 n=81 v=0
110520 On ch=1 n=69 v=95
110633 On ch=1 n=69 v=0
110640 On ch=1 n=79 v=93
110753 On ch=1 n=79 v=0
110760 On ch=1 n=67 v=92
110873 On ch=1 n=67 v=0
110880 On ch=1 n=71 v=90
110880 On ch=1 n=83 v=90
111221 On ch=1 n=71 v=0
111221 On ch=1 n=83 v=0
111240 On ch=1 n=81 v=85
111353 On ch=1 n=81 v=0
111360 On ch=1 n=79 v=84
111527 On ch=1 n=79 v=0
111527 On ch=1 n=83 v=0
111527 On ch=1 n=88 v=0
111527 On ch=1 n=91 v=0
111587 On ch=1 n=79 v=0
111600 TimeSig 6/8 24 8
111600 On ch=1 n=74 v=80
111600 On ch=1 n=86 v=80
111827 On ch=1 n=74 v=0
111827 On ch=1 n=86 v=0
111840 On ch=1 n=79 v=80
111840 On ch=1 n=91 v=80
112067 On ch=1 n=79 v=0
112067 On ch=1 n=91 v=0
112080 On ch=1 n=83 v=80
112080 On ch=1 n=95 v=80
112307 On ch=1 n=83 v=0
112307 On ch=1 n=95 v=0
112320 On ch=1 n=81 v=80
112320 On ch=1 n=86 v=80
112320 On ch=1 n=93 v=80
112889 On ch=1 n=81 v=0
112889 On ch=1 n=86 v=0
112889 On ch=1 n=93 v=0
112920 On ch=1 n=86 v=80
112920 On ch=1 n=91 v=80
113033 On ch=1 n=86 v=0
113033 On ch=1 n=91 v=0
113040 On ch=1 n=86 v=80
113040 On ch=1 n=91 v=80
113040 On ch=1 n=79 v=80
113159 On ch=1 n=79 v=0
113280 On ch=1 n=74 v=80
113399 On ch=1 n=74 v=0
113520 On ch=1 n=74 v=80
113639 On ch=1 n=74 v=0
113760 On ch=1 n=81 v=80
113879 On ch=1 n=81 v=0
113999 On ch=1 n=86 v=0
113999 On ch=1 n=91 v=0
114000 On ch=1 n=74 v=80
114119 On ch=1 n=74 v=0
114240 On ch=1 n=74 v=80
114359 On ch=1 n=74 v=0
114480 On ch=1 n=83 v=80
114599 On ch=1 n=83 v=0
114720 On ch=1 n=74 v=80
114839 On ch=1 n=74 v=0
114960 On ch=1 n=74 v=80
115079 On ch=1 n=74 v=0
115200 On ch=1 n=81 v=80
115319 On ch=1 n=81 v=0
115440 On ch=1 n=74 v=80
115559 On ch=1 n=74 v=0
115680 On ch=1 n=74 v=80
115799 On ch=1 n=74 v=0
115920 On ch=1 n=79 v=80
115920 On ch=1 n=67 v=80
116159 On ch=1 n=79 v=0
116159 On ch=1 n=67 v=0
116160 On ch=1 n=62 v=80
116399 On ch=1 n=62 v=0
116400 On ch=1 n=62 v=80
116627 On ch=1 n=62 v=0
116640 On ch=1 n=69 v=80
116867 On ch=1 n=69 v=0
116880 On ch=1 n=62 v=80
117107 On ch=1 n=62 v=0
117120 On ch=1 n=62 v=80
117347 On ch=1 n=62 v=0
117360 On ch=1 n=71 v=80
117587 On ch=1 n=71 v=0
117600 On ch=1 n=62 v=80
117827 On ch=1 n=62 v=0
117840 On ch=1 n=62 v=80
118067 On ch=1 n=62 v=0
118080 On ch=1 n=69 v=80
118307 On ch=1 n=69 v=0
118320 On ch=1 n=62 v=80
118547 On ch=1 n=62 v=0
118560 On ch=1 n=62 v=80
118787 On ch=1 n=62 v=0
118800 On ch=1 n=67 v=80
119039 On ch=1 n=67 v=0
119040 Meta TrkEnd
TrkEnd
MTrk
0 KeySig 1 major
0 Meta 0x21 00
0 On ch=1 n=43 v=49
0 On ch=1 n=50 v=49
0 On ch=1 n=55 v=49
719 On ch=1 n=43 v=0
719 On ch=1 n=50 v=0
719 On ch=1 n=55 v=0
720 On ch=1 n=31 v=49
720 On ch=1 n=38 v=49
1439 On ch=1 n=31 v=0
1439 On ch=1 n=38 v=0
1440 On ch=1 n=43 v=49
1440 On ch=1 n=50 v=49
1440 On ch=1 n=55 v=49
2159 On ch=1 n=43 v=0
2159 On ch=1 n=50 v=0
2159 On ch=1 n=55 v=0
2160 On ch=1 n=31 v=49
2160 On ch=1 n=38 v=49
2879 On ch=1 n=31 v=0
2879 On ch=1 n=38 v=0
2880 On ch=1 n=43 v=49
2880 On ch=1 n=50 v=49
2880 On ch=1 n=55 v=49
3563 On ch=1 n=43 v=0
3563 On ch=1 n=50 v=0
3563 On ch=1 n=55 v=0
3600 On ch=1 n=31 v=49
3600 On ch=1 n=38 v=49
4283 On ch=1 n=31 v=0
4283 On ch=1 n=38 v=0
4320 On ch=1 n=43 v=49
4320 On ch=1 n=50 v=49
4320 On ch=1 n=55 v=49
5003 On ch=1 n=43 v=0
5003 On ch=1 n=50 v=0
5003 On ch=1 n=55 v=0
5040 On ch=1 n=31 v=49
5040 On ch=1 n=38 v=49
5723 On ch=1 n=31 v=0
5723 On ch=1 n=38 v=0
5760 On ch=1 n=43 v=49
5760 On ch=1 n=50 v=49
5760 On ch=1 n=55 v=49
6443 On ch=1 n=43 v=0
6443 On ch=1 n=50 v=0
6443 On ch=1 n=55 v=0
6480 On ch=1 n=31 v=49
6480 On ch=1 n=38 v=49
7163 On ch=1 n=31 v=0
7163 On ch=1 n=38 v=0
7200 On ch=1 n=43 v=49
7200 On ch=1 n=50 v=49
7200 On ch=1 n=55 v=49
7883 On ch=1 n=43 v=0
7883 On ch=1 n=50 v=0
7883 On ch=1 n=55 v=0
7920 On ch=1 n=31 v=49
7920 On ch=1 n=38 v=49
8603 On ch=1 n=31 v=0
8603 On ch=1 n=38 v=0
8640 On ch=1 n=43 v=49
8640 On ch=1 n=50 v=49
8640 On ch=1 n=55 v=49
9323 On ch=1 n=43 v=0
9323 On ch=1 n=50 v=0
9323 On ch=1 n=55 v=0
9360 On ch=1 n=31 v=49
9360 On ch=1 n=38 v=49
10043 On ch=1 n=31 v=0
10043 On ch=1 n=38 v=0
10080 On ch=1 n=43 v=49
10080 On ch=1 n=50 v=49
10080 On ch=1 n=55 v=49
10763 On ch=1 n=43 v=0
10763 On ch=1 n=50 v=0
10763 On ch=1 n=55 v=0
10800 On ch=1 n=31 v=49
10800 On ch=1 n=38 v=49
11483 On ch=1 n=31 v=0
11483 On ch=1 n=38 v=0
11520 On ch=1 n=43 v=49
11520 On ch=1 n=50 v=49
11520 On ch=1 n=55 v=49
12203 On ch=1 n=43 v=0
12203 On ch=1 n=50 v=0
12203 On ch=1 n=55 v=0
12240 On ch=1 n=31 v=49
12240 On ch=1 n=38 v=49
12923 On ch=1 n=31 v=0
12923 On ch=1 n=38 v=0
12960 On ch=1 n=50 v=49
12960 On ch=1 n=57 v=49
12960 On ch=1 n=62 v=49
13643 On ch=1 n=50 v=0
13643 On ch=1 n=57 v=0
13643 On ch=1 n=62 v=0
13680 On ch=1 n=26 v=49
14363 On ch=1 n=26 v=0
14400 On ch=1 n=55 v=58
15119 On ch=1 n=55 v=0
15120 On ch=1 n=31 v=49
15479 On ch=1 n=31 v=0
15840 On ch=1 n=55 v=49
16523 On ch=1 n=55 v=0
16560 On ch=1 n=31 v=49
17243 On ch=1 n=31 v=0
17280 On ch=1 n=55 v=49
17963 On ch=1 n=55 v=0
18000 On ch=1 n=31 v=49
18683 On ch=1 n=31 v=0
18720 On ch=1 n=55 v=49
19403 On ch=1 n=55 v=0
19440 On ch=1 n=31 v=49
20123 On ch=1 n=31 v=0
20160 On ch=1 n=55 v=49
20843 On ch=1 n=55 v=0
20880 On ch=1 n=31 v=49
21563 On ch=1 n=31 v=0
21600 On ch=1 n=55 v=49
22283 On ch=1 n=55 v=0
22320 On ch=1 n=31 v=49
23003 On ch=1 n=31 v=0
23040 On ch=1 n=50 v=49
23040 On ch=1 n=55 v=49
23666 On ch=1 n=50 v=0
23666 On ch=1 n=55 v=0
23700 On ch=1 n=38 v=49
23756 On ch=1 n=38 v=0
23760 On ch=1 n=26 v=49
24386 On ch=1 n=26 v=0
24420 On ch=1 n=38 v=49
24476 On ch=1 n=38 v=0
24480 On ch=1 n=43 v=49
25106 On ch=1 n=43 v=0
25140 On ch=1 n=43 v=49
25196 On ch=1 n=43 v=0
25200 On ch=1 n=31 v=49
25427 On ch=1 n=31 v=0
25440 On ch=1 n=43 v=64
25667 On ch=1 n=43 v=0
25680 On ch=1 n=45 v=64
25907 On ch=1 n=45 v=0
25920 On ch=1 n=47 v=64
25920 On ch=1 n=35 v=64
26375 On ch=1 n=35 v=0
26400 On ch=1 n=35 v=64
26603 On ch=1 n=47 v=0
26627 On ch=1 n=35 v=0
26640 On ch=1 n=47 v=64
26640 On ch=1 n=35 v=64
27095 On ch=1 n=35 v=0
27120 On ch=1 n=35 v=64
27323 On ch=1 n=47 v=0
27347 On ch=1 n=35 v=0
27360 On ch=1 n=48 v=64
27360 On ch=1 n=36 v=64
27815 On ch=1 n=36 v=0
27840 On ch=1 n=36 v=64
28043 On ch=1 n=48 v=0
28067 On ch=1 n=36 v=0
28080 On ch=1 n=48 v=64
28080 On ch=1 n=36 v=64
28535 On ch=1 n=36 v=0
28560 On ch=1 n=36 v=64
28763 On ch=1 n=48 v=0
28787 On ch=1 n=36 v=0
28800 On ch=1 n=47 v=64
28800 On ch=1 n=38 v=64
29255 On ch=1 n=38 v=0
29280 On ch=1 n=38 v=64
29483 On ch=1 n=47 v=0
29507 On ch=1 n=38 v=0
29520 On ch=1 n=48 v=64
29520 On ch=1 n=38 v=64
29975 On ch=1 n=38 v=0
30000 On ch=1 n=36 v=64
30203 On ch=1 n=48 v=0
30227 On ch=1 n=36 v=0
30240 On ch=1 n=47 v=64
30240 On ch=1 n=35 v=76
30479 On ch=1 n=35 v=0
30480 On ch=1 n=35 v=76
30719 On ch=1 n=35 v=0
30720 On ch=1 n=35 v=76
30923 On ch=1 n=47 v=0
30959 On ch=1 n=35 v=0
30960 On ch=1 n=48 v=64
30960 On ch=1 n=36 v=76
31199 On ch=1 n=36 v=0
31200 On ch=1 n=36 v=76
31439 On ch=1 n=36 v=0
31440 On ch=1 n=36 v=76
31643 On ch=1 n=48 v=0
31679 On ch=1 n=36 v=0
31680 On ch=1 n=50 v=64
31680 On ch=1 n=38 v=76
31919 On ch=1 n=38 v=0
31920 On ch=1 n=38 v=76
32159 On ch=1 n=38 v=0
32160 On ch=1 n=38 v=76
32363 On ch=1 n=50 v=0
32399 On ch=1 n=38 v=0
32400 On ch=1 n=52 v=64
32400 On ch=1 n=40 v=64
32627 On ch=1 n=40 v=0
32640 On ch=1 n=47 v=64
32879 On ch=1 n=47 v=0
32880 On ch=1 n=52 v=64
33119 On ch=1 n=52 v=0
33120 On ch=1 n=55 v=49
33479 On ch=1 n=55 v=0
33480 On ch=1 n=54 v=49
33599 On ch=1 n=54 v=0
33600 On ch=1 n=52 v=49
33767 On ch=1 n=52 v=0
33827 On ch=1 n=52 v=0
33840 On ch=1 n=50 v=49
33840 On ch=1 n=50 v=49
34067 On ch=1 n=50 v=0
34067 On ch=1 n=50 v=0
34080 On ch=1 n=55 v=49
34307 On ch=1 n=55 v=0
34320 On ch=1 n=59 v=49
34547 On ch=1 n=59 v=0
34560 On ch=1 n=57 v=49
34560 On ch=1 n=50 v=49
35015 On ch=1 n=57 v=0
35040 On ch=1 n=55 v=49
35243 On ch=1 n=50 v=0
35267 On ch=1 n=55 v=0
35280 On ch=1 n=50 v=49
35280 On ch=1 n=55 v=49
35400 On ch=1 n=43 v=49
35513 On ch=1 n=43 v=0
35520 On ch=1 n=55 v=49
35633 On ch=1 n=55 v=0
35640 On ch=1 n=50 v=49
35753 On ch=1 n=50 v=0
35760 On ch=1 n=59 v=49
35873 On ch=1 n=59 v=0
35880 On ch=1 n=55 v=49
35963 On ch=1 n=50 v=0
35963 On ch=1 n=55 v=0
35993 On ch=1 n=55 v=0
36000 On ch=1 n=62 v=49
36455 On ch=1 n=62 v=0
36480 On ch=1 n=50 v=49
36707 On ch=1 n=50 v=0
36720 On ch=1 n=43 v=49
36722 Par ch=1 c=64 v=127
36839 On ch=1 n=43 v=0
36840 On ch=1 n=50 v=49
36959 On ch=1 n=50 v=0
36960 On ch=1 n=55 v=49
37079 On ch=1 n=55 v=0
37080 On ch=1 n=50 v=49
37199 On ch=1 n=50 v=0
37200 On ch=1 n=59 v=49
37319 On ch=1 n=59 v=0
37320 On ch=1 n=55 v=49
37439 On ch=1 n=55 v=0
37440 On ch=1 n=62 v=49
37895 On ch=1 n=62 v=0
37920 On ch=1 n=50 v=49
38147 On ch=1 n=50 v=0
38160 On ch=1 n=43 v=49
38161 Par ch=1 c=64 v=0
38162 Par ch=1 c=64 v=127
38279 On ch=1 n=43 v=0
38280 On ch=1 n=50 v=49
38399 On ch=1 n=50 v=0
38400 On ch=1 n=55 v=49
38519 On ch=1 n=55 v=0
38520 On ch=1 n=50 v=49
38639 On ch=1 n=50 v=0
38640 On ch=1 n=59 v=49
38759 On ch=1 n=59 v=0
38760 On ch=1 n=55 v=49
38879 On ch=1 n=55 v=0
38880 On ch=1 n=62 v=49
39335 On ch=1 n=62 v=0
39360 On ch=1 n=50 v=49
39587 On ch=1 n=50 v=0
39600 On ch=1 n=43 v=49
39601 Par ch=1 c=64 v=0
39719 On ch=1 n=43 v=0
39720 On ch=1 n=50 v=49
39839 On ch=1 n=50 v=0
39840 On ch=1 n=55 v=49
39959 On ch=1 n=55 v=0
39960 On ch=1 n=50 v=49
40079 On ch=1 n=50 v=0
40080 On ch=1 n=59 v=49
40199 On ch=1 n=59 v=0
40200 On ch=1 n=55 v=49
40319 On ch=1 n=55 v=0
40320 On ch=1 n=62 v=49
40775 On ch=1 n=62 v=0
40800 On ch=1 n=50 v=49
41027 On ch=1 n=50 v=0
41040 On ch=1 n=43 v=49
41159 On ch=1 n=43 v=0
41160 On ch=1 n=50 v=49
41279 On ch=1 n=50 v=0
41280 On ch=1 n=55 v=49
41399 On ch=1 n=55 v=0
41400 On ch=1 n=50 v=49
41519 On ch=1 n=50 v=0
41520 On ch=1 n=59 v=49
41639 On ch=1 n=59 v=0
41640 On ch=1 n=55 v=49
41759 On ch=1 n=55 v=0
41760 On ch=1 n=62 v=49
42215 On ch=1 n=62 v=0
42240 On ch=1 n=50 v=49
42467 On ch=1 n=50 v=0
42480 On ch=1 n=43 v=49
42599 On ch=1 n=43 v=0
42600 On ch=1 n=50 v=49
42719 On ch=1 n=50 v=0
42720 On ch=1 n=55 v=49
42839 On ch=1 n=55 v=0
42840 On ch=1 n=50 v=49
42959 On ch=1 n=50 v=0
42960 On ch=1 n=59 v=49
43079 On ch=1 n=59 v=0
43080 On ch=1 n=55 v=49
43199 On ch=1 n=55 v=0
43200 On ch=1 n=62 v=49
43655 On ch=1 n=62 v=0
43680 On ch=1 n=50 v=49
43907 On ch=1 n=50 v=0
43920 On ch=1 n=43 v=49
43922 Par ch=1 c=64 v=127
44039 On ch=1 n=43 v=0
44040 On ch=1 n=48 v=49
44159 On ch=1 n=48 v=0
44160 On ch=1 n=55 v=49
44279 On ch=1 n=55 v=0
44280 On ch=1 n=52 v=49
44399 On ch=1 n=52 v=0
44400 On ch=1 n=60 v=49
44627 On ch=1 n=60 v=0
44640 On ch=1 n=43 v=49
44641 Par ch=1 c=64 v=0
44642 Par ch=1 c=64 v=127
44759 On ch=1 n=43 v=0
44760 On ch=1 n=50 v=49
44879 On ch=1 n=50 v=0
44880 On ch=1 n=55 v=49
44999 On ch=1 n=55 v=0
45000 On ch=1 n=50 v=49
45119 On ch=1 n=50 v=0
45120 On ch=1 n=59 v=49
45347 On ch=1 n=59 v=0
45360 On ch=1 n=38 v=49
45361 Par ch=1 c=64 v=0
45479 On ch=1 n=38 v=0
45480 On ch=1 n=50 v=49
45599 On ch=1 n=50 v=0
45600 On ch=1 n=55 v=49
45719 On ch=1 n=55 v=0
45720 On ch=1 n=50 v=49
45839 On ch=1 n=50 v=0
45840 On ch=1 n=59 v=49
45959 On ch=1 n=59 v=0
45960 On ch=1 n=55 v=49
46079 On ch=1 n=55 v=0
46080 On ch=1 n=60 v=49
46559 On ch=1 n=60 v=0
46560 On ch=1 n=50 v=49
46560 On ch=1 n=59 v=49
46799 On ch=1 n=50 v=0
46799 On ch=1 n=59 v=0
46800 On ch=1 n=57 v=49
46920 On ch=1 n=38 v=49
47027 On ch=1 n=57 v=0
47039 On ch=1 n=38 v=0
47040 On ch=1 n=54 v=49
47159 On ch=1 n=54 v=0
47160 On ch=1 n=50 v=49
47279 On ch=1 n=50 v=0
47280 On ch=1 n=57 v=49
47399 On ch=1 n=57 v=0
47400 On ch=1 n=54 v=49
47519 On ch=1 n=54 v=0
47520 On ch=1 n=62 v=49
47975 On ch=1 n=62 v=0
48000 On ch=1 n=45 v=49
48227 On ch=1 n=45 v=0
48240 On ch=1 n=43 v=49
48359 On ch=1 n=43 v=0
48360 On ch=1 n=50 v=49
48479 On ch=1 n=50 v=0
48480 On ch=1 n=55 v=49
48599 On ch=1 n=55 v=0
48600 On ch=1 n=50 v=49
48719 On ch=1 n=50 v=0
48720 On ch=1 n=59 v=49
48839 On ch=1 n=59 v=0
48840 On ch=1 n=55 v=49
48959 On ch=1 n=55 v=0
48960 On ch=1 n=62 v=49
49415 On ch=1 n=62 v=0
49440 On ch=1 n=50 v=49
49667 On ch=1 n=50 v=0
49680 On ch=1 n=43 v=49
49799 On ch=1 n=43 v=0
49800 On ch=1 n=50 v=49
49919 On ch=1 n=50 v=0
49920 On ch=1 n=55 v=49
50039 On ch=1 n=55 v=0
50040 On ch=1 n=50 v=49
50159 On ch=1 n=50 v=0
50160 On ch=1 n=59 v=49
50279 On ch=1 n=59 v=0
50280 On ch=1 n=55 v=49
50399 On ch=1 n=55 v=0
50400 On ch=1 n=62 v=49
50855 On ch=1 n=62 v=0
50880 On ch=1 n=50 v=49
51107 On ch=1 n=50 v=0
51120 On ch=1 n=43 v=49
51239 On ch=1 n=43 v=0
51240 On ch=1 n=50 v=49
51359 On ch=1 n=50 v=0
51360 On ch=1 n=55 v=49
51479 On ch=1 n=55 v=0
51480 On ch=1 n=50 v=49
51599 On ch=1 n=50 v=0
51600 On ch=1 n=59 v=49
51719 On ch=1 n=59 v=0
51720 On ch=1 n=55 v=49
51839 On ch=1 n=55 v=0
51840 On ch=1 n=62 v=49
52295 On ch=1 n=62 v=0
52320 On ch=1 n=50 v=49
52547 On ch=1 n=50 v=0
52560 On ch=1 n=43 v=49
52679 On ch=1 n=43 v=0
52680 On ch=1 n=50 v=49
52799 On ch=1 n=50 v=0
52800 On ch=1 n=55 v=49
52919 On ch=1 n=55 v=0
52920 On ch=1 n=50 v=49
53039 On ch=1 n=50 v=0
53040 On ch=1 n=59 v=49
53159 On ch=1 n=59 v=0
53160 On ch=1 n=55 v=49
53279 On ch=1 n=55 v=0
53280 On ch=1 n=62 v=49
53735 On ch=1 n=62 v=0
53760 On ch=1 n=50 v=49
53987 On ch=1 n=50 v=0
54000 On ch=1 n=43 v=49
54119 On ch=1 n=43 v=0
54120 On ch=1 n=50 v=49
54239 On ch=1 n=50 v=0
54240 On ch=1 n=55 v=49
54359 On ch=1 n=55 v=0
54360 On ch=1 n=50 v=49
54479 On ch=1 n=50 v=0
54480 On ch=1 n=59 v=49
54599 On ch=1 n=59 v=0
54600 On ch=1 n=55 v=49
54719 On ch=1 n=55 v=0
54720 On ch=1 n=62 v=49
54839 On ch=1 n=62 v=0
54960 On ch=1 n=57 v=49
55079 On ch=1 n=57 v=0
55200 On ch=1 n=55 v=49
55319 On ch=1 n=55 v=0
55440 On ch=1 n=43 v=49
55553 On ch=1 n=43 v=0
55560 On ch=1 n=52 v=49
55673 On ch=1 n=52 v=0
55680 On ch=1 n=64 v=49
55799 On ch=1 n=64 v=0
55800 On ch=1 n=60 v=49
55919 On ch=1 n=60 v=0
55920 On ch=1 n=55 v=49
56039 On ch=1 n=55 v=0
56040 On ch=1 n=52 v=49
56153 On ch=1 n=52 v=0
56160 On ch=1 n=43 v=49
56273 On ch=1 n=43 v=0
56280 On ch=1 n=50 v=49
56393 On ch=1 n=50 v=0
56400 On ch=1 n=62 v=49
56519 On ch=1 n=62 v=0
56520 On ch=1 n=59 v=49
56639 On ch=1 n=59 v=0
56640 On ch=1 n=55 v=49
56759 On ch=1 n=55 v=0
56760 On ch=1 n=50 v=49
56873 On ch=1 n=50 v=0
56880 On ch=1 n=38 v=49
57335 On ch=1 n=38 v=0
57360 On ch=1 n=50 v=49
57587 On ch=1 n=50 v=0
57600 On ch=1 n=62 v=49
58055 On ch=1 n=62 v=0
58080 On ch=1 n=50 v=49
58307 On ch=1 n=50 v=0
58320 On ch=1 n=43 v=49
58439 On ch=1 n=43 v=0
58440 On ch=1 n=50 v=49
58559 On ch=1 n=50 v=0
58560 On ch=1 n=55 v=49
58679 On ch=1 n=55 v=0
58680 On ch=1 n=50 v=49
58799 On ch=1 n=50 v=0
58800 On ch=1 n=59 v=49
58919 On ch=1 n=59 v=0
58920 On ch=1 n=55 v=49
59039 On ch=1 n=55 v=0
59040 On ch=1 n=62 v=49
59267 On ch=1 n=62 v=0
59280 On ch=1 n=43 v=49
59507 On ch=1 n=43 v=0
59520 On ch=1 n=45 v=49
59747 On ch=1 n=45 v=0
59760 On ch=1 n=47 v=49
59879 On ch=1 n=47 v=0
59880 On ch=1 n=55 v=49
59999 On ch=1 n=55 v=0
60000 On ch=1 n=62 v=49
60119 On ch=1 n=62 v=0
60120 On ch=1 n=55 v=49
60239 On ch=1 n=55 v=0
60240 On ch=1 n=47 v=49
60359 On ch=1 n=47 v=0
60480 On ch=1 n=47 v=49
60599 On ch=1 n=47 v=0
60600 On ch=1 n=55 v=49
60719 On ch=1 n=55 v=0
60720 On ch=1 n=62 v=49
60839 On ch=1 n=62 v=0
60840 On ch=1 n=55 v=49
60959 On ch=1 n=55 v=0
60960 On ch=1 n=47 v=49
61079 On ch=1 n=47 v=0
61200 On ch=1 n=48 v=49
61319 On ch=1 n=48 v=0
61320 On ch=1 n=55 v=49
61439 On ch=1 n=55 v=0
61440 On ch=1 n=60 v=49
61559 On ch=1 n=60 v=0
61560 On ch=1 n=55 v=49
61679 On ch=1 n=55 v=0
61680 On ch=1 n=48 v=49
61799 On ch=1 n=48 v=0
61920 On ch=1 n=36 v=49
62039 On ch=1 n=36 v=0
62040 On ch=1 n=55 v=49
62159 On ch=1 n=55 v=0
62160 On ch=1 n=60 v=49
62279 On ch=1 n=60 v=0
62280 On ch=1 n=55 v=49
62399 On ch=1 n=55 v=0
62400 On ch=1 n=52 v=49
62519 On ch=1 n=52 v=0
62640 On ch=1 n=38 v=49
62753 On ch=1 n=38 v=0
62760 On ch=1 n=50 v=49
62873 On ch=1 n=50 v=0
62880 On ch=1 n=55 v=49
62993 On ch=1 n=55 v=0
63000 On ch=1 n=50 v=49
63113 On ch=1 n=50 v=0
63120 On ch=1 n=59 v=49
63233 On ch=1 n=59 v=0
63240 On ch=1 n=55 v=49
63353 On ch=1 n=55 v=0
63360 On ch=1 n=62 v=49
63587 On ch=1 n=62 v=0
63600 On ch=1 n=50 v=49
63827 On ch=1 n=50 v=0
63840 On ch=1 n=48 v=49
64067 On ch=1 n=48 v=0
64080 On ch=1 n=35 v=49
64307 On ch=1 n=35 v=0
64320 On ch=1 n=50 v=49
64320 On ch=1 n=55 v=49
64775 On ch=1 n=50 v=0
64775 On ch=1 n=55 v=0
64800 On ch=1 n=36 v=49
65027 On ch=1 n=36 v=0
65040 On ch=1 n=52 v=49
65040 On ch=1 n=57 v=49
65495 On ch=1 n=52 v=0
65495 On ch=1 n=57 v=0
65520 On ch=1 n=38 v=49
65747 On ch=1 n=38 v=0
65760 On ch=1 n=54 v=49
65760 On ch=1 n=59 v=49
66215 On ch=1 n=54 v=0
66215 On ch=1 n=59 v=0
66240 On ch=1 n=40 v=49
66353 On ch=1 n=40 v=0
66360 On ch=1 n=47 v=49
66479 On ch=1 n=47 v=0
66480 On ch=1 n=52 v=49
66599 On ch=1 n=52 v=0
66600 On ch=1 n=55 v=49
66719 On ch=1 n=55 v=0
66720 On ch=1 n=59 v=49
66839 On ch=1 n=59 v=0
66840 On ch=1 n=64 v=49
66959 On ch=1 n=64 v=0
66960 On ch=1 n=67 v=49
67319 On ch=1 n=67 v=0
67320 On ch=1 n=66 v=49
67439 On ch=1 n=66 v=0
67440 On ch=1 n=64 v=49
67667 On ch=1 n=64 v=0
67680 On ch=1 n=62 v=49
67907 On ch=1 n=62 v=0
67920 On ch=1 n=67 v=49
68147 On ch=1 n=67 v=0
68160 On ch=1 n=71 v=49
68387 On ch=1 n=71 v=0
68400 On ch=1 n=69 v=49
68400 On ch=1 n=62 v=49
68855 On ch=1 n=69 v=0
68880 On ch=1 n=67 v=49
69083 On ch=1 n=62 v=0
69107 On ch=1 n=67 v=0
69120 On ch=1 n=67 v=49
69120 On ch=1 n=62 v=49
69347 On ch=1 n=62 v=0
69360 On ch=1 n=59 v=49
69587 On ch=1 n=59 v=0
69600 On ch=1 n=57 v=49
69803 On ch=1 n=67 v=0
69827 On ch=1 n=57 v=0
69840 On ch=1 n=55 v=49
69840 On ch=1 n=50 v=49
70067 On ch=1 n=55 v=0
70067 On ch=1 n=50 v=0
70080 On ch=1 n=47 v=49
70307 On ch=1 n=47 v=0
70320 On ch=1 n=45 v=49
70547 On ch=1 n=45 v=0
70560 On ch=1 n=43 v=49
70787 On ch=1 n=43 v=0
70800 On ch=1 n=50 v=49
71027 On ch=1 n=50 v=0
71040 On ch=1 n=55 v=49
71267 On ch=1 n=55 v=0
71280 On ch=1 n=43 v=49
71507 On ch=1 n=43 v=0
71520 On ch=1 n=48 v=49
71747 On ch=1 n=48 v=0
71760 On ch=1 n=55 v=49
71987 On ch=1 n=55 v=0
72000 On ch=1 n=43 v=49
72227 On ch=1 n=43 v=0
72240 On ch=1 n=50 v=49
72467 On ch=1 n=50 v=0
72480 On ch=1 n=55 v=49
72707 On ch=1 n=55 v=0
72720 On ch=1 n=59 v=49
72947 On ch=1 n=59 v=0
72960 On ch=1 n=55 v=49
73187 On ch=1 n=55 v=0
73200 On ch=1 n=50 v=49
73427 On ch=1 n=50 v=0
73440 On ch=1 n=43 v=49
73667 On ch=1 n=43 v=0
73680 On ch=1 n=50 v=49
73907 On ch=1 n=50 v=0
73920 On ch=1 n=55 v=49
74147 On ch=1 n=55 v=0
74160 On ch=1 n=43 v=49
74387 On ch=1 n=43 v=0
74400 On ch=1 n=48 v=49
74627 On ch=1 n=48 v=0
74640 On ch=1 n=55 v=49
74867 On ch=1 n=55 v=0
74880 On ch=1 n=43 v=49
75107 On ch=1 n=43 v=0
75120 On ch=1 n=50 v=49
75347 On ch=1 n=50 v=0
75360 On ch=1 n=55 v=49
75587 On ch=1 n=55 v=0
75600 On ch=1 n=59 v=49
76055 On ch=1 n=59 v=0
76080 On ch=1 n=50 v=49
76307 On ch=1 n=50 v=0
76320 On ch=1 n=43 v=49
76547 On ch=1 n=43 v=0
76560 On ch=1 n=50 v=49
76787 On ch=1 n=50 v=0
76800 On ch=1 n=55 v=49
77027 On ch=1 n=55 v=0
77040 On ch=1 n=59 v=49
77495 On ch=1 n=59 v=0
77520 On ch=1 n=50 v=49
77747 On ch=1 n=50 v=0
77760 On ch=1 n=45 v=49
78215 On ch=1 n=45 v=0
78240 On ch=1 n=45 v=49
78467 On ch=1 n=45 v=0
78480 On ch=1 n=50 v=49
79163 On ch=1 n=50 v=0
79200 On ch=1 n=57 v=49
79679 On ch=1 n=57 v=0
79680 On ch=1 n=64 v=49
79919 On ch=1 n=64 v=0
79920 On ch=1 n=62 v=49
80375 On ch=1 n=62 v=0
80640 On ch=1 n=55 v=49
80640 On ch=1 n=55 v=49
80879 On ch=1 n=55 v=0
80880 On ch=1 n=50 v=49
80999 On ch=1 n=55 v=0
81119 On ch=1 n=50 v=0
81120 On ch=1 n=43 v=49
81359 On ch=1 n=43 v=0
81360 On ch=1 n=55 v=49
81360 On ch=1 n=55 v=49
81599 On ch=1 n=55 v=0
81600 On ch=1 n=48 v=49
81719 On ch=1 n=55 v=0
81827 On ch=1 n=48 v=0
81840 On ch=1 n=43 v=49
82067 On ch=1 n=43 v=0
82080 On ch=1 n=55 v=49
82080 On ch=1 n=55 v=49
82319 On ch=1 n=55 v=0
82320 On ch=1 n=50 v=49
82439 On ch=1 n=55 v=0
82559 On ch=1 n=50 v=0
82560 On ch=1 n=43 v=49
82799 On ch=1 n=43 v=0
82800 On ch=1 n=55 v=49
82800 On ch=1 n=55 v=49
83027 On ch=1 n=55 v=0
83040 On ch=1 n=50 v=49
83267 On ch=1 n=50 v=0
83280 On ch=1 n=43 v=49
83483 On ch=1 n=55 v=0
83507 On ch=1 n=43 v=0
83520 On ch=1 n=55 v=49
83520 On ch=1 n=55 v=49
83747 On ch=1 n=55 v=0
83760 On ch=1 n=50 v=49
83987 On ch=1 n=50 v=0
84000 On ch=1 n=43 v=49
84203 On ch=1 n=55 v=0
84227 On ch=1 n=43 v=0
84240 On ch=1 n=48 v=49
84240 On ch=1 n=48 v=49
84467 On ch=1 n=48 v=0
84480 On ch=1 n=43 v=49
84707 On ch=1 n=43 v=0
84720 On ch=1 n=36 v=49
84923 On ch=1 n=48 v=0
84947 On ch=1 n=36 v=0
84960 On ch=1 n=55 v=49
84960 On ch=1 n=55 v=49
85187 On ch=1 n=55 v=0
85200 On ch=1 n=50 v=49
85427 On ch=1 n=50 v=0
85440 On ch=1 n=43 v=49
85643 On ch=1 n=55 v=0
85667 On ch=1 n=43 v=0
85680 On ch=1 n=55 v=49
85680 On ch=1 n=55 v=49
85907 On ch=1 n=55 v=0
86363 On ch=1 n=55 v=0
86400 On ch=1 n=43 v=49
86627 On ch=1 n=43 v=0
86640 On ch=1 n=50 v=49
86867 On ch=1 n=50 v=0
86880 On ch=1 n=59 v=49
87107 On ch=1 n=59 v=0
87120 On ch=1 n=62 v=49
87575 On ch=1 n=62 v=0
87600 On ch=1 n=59 v=49
87827 On ch=1 n=59 v=0
87840 On ch=1 n=41 v=49
88067 On ch=1 n=41 v=0
88080 On ch=1 n=48 v=49
88307 On ch=1 n=48 v=0
88320 On ch=1 n=57 v=49
88320 On ch=1 n=57 v=49
88547 On ch=1 n=57 v=0
88547 On ch=1 n=57 v=0
88560 On ch=1 n=60 v=49
88560 On ch=1 n=60 v=49
88799 On ch=1 n=60 v=0
88800 On ch=1 n=48 v=49
89039 On ch=1 n=60 v=0
89039 On ch=1 n=48 v=0
89040 On ch=1 n=55 v=49
89040 On ch=1 n=55 v=49
89267 On ch=1 n=55 v=0
89267 On ch=1 n=55 v=0
89280 On ch=1 n=45 v=49
89520 On ch=1 n=52 v=49
89760 On ch=1 n=59 v=49
89987 On ch=1 n=59 v=0
90000 On ch=1 n=60 v=49
90227 On ch=1 n=60 v=0
90240 On ch=1 n=62 v=49
90467 On ch=1 n=62 v=0
90480 On ch=1 n=64 v=49
90647 On ch=1 n=45 v=0
90659 On ch=1 n=52 v=0
90707 On ch=1 n=64 v=0
90720 On ch=1 n=57 v=49
90720 On ch=1 n=50 v=49
91175 On ch=1 n=50 v=0
91200 On ch=1 n=45 v=49
91427 On ch=1 n=45 v=0
91440 On ch=1 n=50 v=49
92087 On ch=1 n=57 v=0
92123 On ch=1 n=50 v=0
92160 On ch=1 n=43 v=80
92273 On ch=1 n=43 v=0
92280 On ch=1 n=50 v=80
92393 On ch=1 n=50 v=0
92400 On ch=1 n=59 v=80
92513 On ch=1 n=59 v=0
92520 On ch=1 n=57 v=80
92633 On ch=1 n=57 v=0
92640 On ch=1 n=59 v=80
92753 On ch=1 n=59 v=0
92760 On ch=1 n=55 v=80
92873 On ch=1 n=55 v=0
92880 On ch=1 n=43 v=80
92993 On ch=1 n=43 v=0
93000 On ch=1 n=50 v=80
93113 On ch=1 n=50 v=0
93120 On ch=1 n=57 v=80
93233 On ch=1 n=57 v=0
93240 On ch=1 n=55 v=80
93353 On ch=1 n=55 v=0
93360 On ch=1 n=57 v=80
93473 On ch=1 n=57 v=0
93480 On ch=1 n=54 v=80
93593 On ch=1 n=54 v=0
93600 On ch=1 n=43 v=80
93713 On ch=1 n=43 v=0
93720 On ch=1 n=50 v=80
93833 On ch=1 n=50 v=0
93840 On ch=1 n=59 v=80
93953 On ch=1 n=59 v=0
93960 On ch=1 n=57 v=80
94073 On ch=1 n=57 v=0
94080 On ch=1 n=59 v=80
94193 On ch=1 n=59 v=0
94200 On ch=1 n=55 v=80
94313 On ch=1 n=55 v=0
94320 On ch=1 n=43 v=80
94433 On ch=1 n=43 v=0
94440 On ch=1 n=50 v=80
94553 On ch=1 n=50 v=0
94560 On ch=1 n=59 v=80
94673 On ch=1 n=59 v=0
94680 On ch=1 n=57 v=80
94793 On ch=1 n=57 v=0
94800 On ch=1 n=59 v=80
94913 On ch=1 n=59 v=0
94920 On ch=1 n=55 v=80
95033 On ch=1 n=55 v=0
95040 On ch=1 n=43 v=80
95153 On ch=1 n=43 v=0
95160 On ch=1 n=50 v=80
95273 On ch=1 n=50 v=0
95280 On ch=1 n=55 v=80
95393 On ch=1 n=55 v=0
95400 On ch=1 n=54 v=80
95513 On ch=1 n=54 v=0
95520 On ch=1 n=55 v=80
95633 On ch=1 n=55 v=0
95640 On ch=1 n=50 v=80
95753 On ch=1 n=50 v=0
95760 On ch=1 n=43 v=80
95873 On ch=1 n=43 v=0
95880 On ch=1 n=50 v=80
95993 On ch=1 n=50 v=0
96000 On ch=1 n=57 v=80
96113 On ch=1 n=57 v=0
96120 On ch=1 n=55 v=80
96233 On ch=1 n=55 v=0
96240 On ch=1 n=57 v=80
96353 On ch=1 n=57 v=0
96360 On ch=1 n=54 v=80
96473 On ch=1 n=54 v=0
96480 On ch=1 n=43 v=80
96593 On ch=1 n=43 v=0
96600 On ch=1 n=50 v=80
96713 On ch=1 n=50 v=0
96720 On ch=1 n=59 v=80
96833 On ch=1 n=59 v=0
96840 On ch=1 n=57 v=80
96953 On ch=1 n=57 v=0
96960 On ch=1 n=59 v=80
97073 On ch=1 n=59 v=0
97080 On ch=1 n=55 v=80
97193 On ch=1 n=55 v=0
97200 On ch=1 n=43 v=80
97313 On ch=1 n=43 v=0
97320 On ch=1 n=50 v=80
97433 On ch=1 n=50 v=0
97440 On ch=1 n=60 v=80
97553 On ch=1 n=60 v=0
97560 On ch=1 n=59 v=80
97673 On ch=1 n=59 v=0
97680 On ch=1 n=60 v=80
97793 On ch=1 n=60 v=0
97800 On ch=1 n=57 v=80
97913 On ch=1 n=57 v=0
97920 On ch=1 n=43 v=80
98033 On ch=1 n=43 v=0
98040 On ch=1 n=50 v=80
98153 On ch=1 n=50 v=0
98160 On ch=1 n=62 v=80
98273 On ch=1 n=62 v=0
98280 On ch=1 n=60 v=80
98393 On ch=1 n=60 v=0
98400 On ch=1 n=59 v=80
98513 On ch=1 n=59 v=0
98520 On ch=1 n=55 v=80
98633 On ch=1 n=55 v=0
98640 On ch=1 n=50 v=80
98753 On ch=1 n=50 v=0
98760 On ch=1 n=57 v=80
98873 On ch=1 n=57 v=0
98880 On ch=1 n=66 v=80
98993 On ch=1 n=66 v=0
99000 On ch=1 n=64 v=80
99113 On ch=1 n=64 v=0
99120 On ch=1 n=62 v=80
99233 On ch=1 n=62 v=0
99240 On ch=1 n=59 v=80
99353 On ch=1 n=59 v=0
99360 On ch=1 n=48 v=80
99473 On ch=1 n=48 v=0
99480 On ch=1 n=55 v=81
99593 On ch=1 n=55 v=0
99600 On ch=1 n=64 v=82
99713 On ch=1 n=64 v=0
99720 On ch=1 n=62 v=84
99833 On ch=1 n=62 v=0
99840 On ch=1 n=60 v=85
99953 On ch=1 n=60 v=0
99960 On ch=1 n=57 v=86
100073 On ch=1 n=57 v=0
100080 On ch=1 n=43 v=88
100193 On ch=1 n=43 v=0
100200 On ch=1 n=50 v=89
100313 On ch=1 n=50 v=0
100320 On ch=1 n=62 v=90
100433 On ch=1 n=62 v=0
100440 On ch=1 n=60 v=92
100553 On ch=1 n=60 v=0
100560 On ch=1 n=59 v=93
100673 On ch=1 n=59 v=0
100680 On ch=1 n=55 v=94
100793 On ch=1 n=55 v=0
100800 On ch=1 n=38 v=96
100800 On ch=1 n=50 v=96
101040 On ch=1 n=60 v=96
101040 On ch=1 n=64 v=96
101267 On ch=1 n=60 v=0
101267 On ch=1 n=64 v=0
101280 On ch=1 n=59 v=96
101280 On ch=1 n=62 v=96
101483 On ch=1 n=38 v=0
101483 On ch=1 n=50 v=0
101507 On ch=1 n=59 v=0
101507 On ch=1 n=62 v=0
101520 On ch=1 n=54 v=96
101520 On ch=1 n=57 v=96
101520 On ch=1 n=50 v=96
102089 On ch=1 n=54 v=0
102089 On ch=1 n=57 v=0
102120 On ch=1 n=55 v=96
102120 On ch=1 n=59 v=96
102203 On ch=1 n=50 v=0
102233 On ch=1 n=55 v=0
102233 On ch=1 n=59 v=0
102240 On ch=1 n=55 v=96
102240 On ch=1 n=59 v=96
102360 On ch=1 n=43 v=96
102473 On ch=1 n=43 v=0
102480 On ch=1 n=55 v=96
102593 On ch=1 n=55 v=0
102600 On ch=1 n=54 v=96
102713 On ch=1 n=54 v=0
102720 On ch=1 n=55 v=96
102833 On ch=1 n=55 v=0
102840 On ch=1 n=50 v=96
102923 On ch=1 n=55 v=0
102923 On ch=1 n=59 v=0
102953 On ch=1 n=50 v=0
102960 On ch=1 n=59 v=96
103187 On ch=1 n=59 v=0
103200 On ch=1 n=43 v=96
103427 On ch=1 n=43 v=0
103440 On ch=1 n=45 v=96
103667 On ch=1 n=45 v=0
103680 On ch=1 n=47 v=96
103793 On ch=1 n=47 v=0
103800 On ch=1 n=55 v=96
103913 On ch=1 n=55 v=0
103920 On ch=1 n=62 v=96
104033 On ch=1 n=62 v=0
104040 On ch=1 n=55 v=96
104153 On ch=1 n=55 v=0
104160 On ch=1 n=47 v=96
104273 On ch=1 n=47 v=0
104280 On ch=1 n=55 v=96
104393 On ch=1 n=55 v=0
104400 On ch=1 n=43 v=96
104513 On ch=1 n=43 v=0
104520 On ch=1 n=55 v=96
104633 On ch=1 n=55 v=0
104640 On ch=1 n=59 v=96
104753 On ch=1 n=59 v=0
104760 On ch=1 n=55 v=96
104873 On ch=1 n=55 v=0
104880 On ch=1 n=50 v=96
104993 On ch=1 n=50 v=0
105000 On ch=1 n=55 v=96
105113 On ch=1 n=55 v=0
105120 On ch=1 n=36 v=96
105239 On ch=1 n=36 v=0
105240 On ch=1 n=55 v=96
105353 On ch=1 n=55 v=0
105360 On ch=1 n=60 v=96
105473 On ch=1 n=60 v=0
105480 On ch=1 n=55 v=96
105593 On ch=1 n=55 v=0
105600 On ch=1 n=52 v=96
105713 On ch=1 n=52 v=0
105720 On ch=1 n=55 v=96
105833 On ch=1 n=55 v=0
105840 On ch=1 n=45 v=96
105953 On ch=1 n=45 v=0
105960 On ch=1 n=52 v=96
106073 On ch=1 n=52 v=0
106080 On ch=1 n=57 v=96
106193 On ch=1 n=57 v=0
106200 On ch=1 n=52 v=96
106313 On ch=1 n=52 v=0
106320 On ch=1 n=48 v=96
106433 On ch=1 n=48 v=0
106440 On ch=1 n=52 v=96
106553 On ch=1 n=52 v=0
106560 On ch=1 n=38 v=96
106673 On ch=1 n=38 v=0
106680 On ch=1 n=55 v=96
106793 On ch=1 n=55 v=0
106800 On ch=1 n=59 v=96
106913 On ch=1 n=59 v=0
106920 On ch=1 n=50 v=96
107033 On ch=1 n=50 v=0
107040 On ch=1 n=55 v=96
107153 On ch=1 n=55 v=0
107160 On ch=1 n=59 v=96
107273 On ch=1 n=59 v=0
107280 On ch=1 n=62 v=96
107393 On ch=1 n=62 v=0
107400 On ch=1 n=57 v=96
107513 On ch=1 n=57 v=0
107520 On ch=1 n=66 v=96
107633 On ch=1 n=66 v=0
107640 On ch=1 n=38 v=96
107640 On ch=1 n=50 v=96
107753 On ch=1 n=38 v=0
107753 On ch=1 n=50 v=0
107760 On ch=1 n=36 v=96
107760 On ch=1 n=48 v=96
107987 On ch=1 n=36 v=0
107987 On ch=1 n=48 v=0
108000 On ch=1 n=35 v=96
108000 On ch=1 n=47 v=96
108227 On ch=1 n=35 v=0
108227 On ch=1 n=47 v=0
108240 On ch=1 n=47 v=96
108240 On ch=1 n=50 v=96
108240 On ch=1 n=55 v=96
108695 On ch=1 n=47 v=0
108695 On ch=1 n=50 v=0
108695 On ch=1 n=55 v=0
108720 On ch=1 n=36 v=96
108720 On ch=1 n=48 v=96
108947 On ch=1 n=36 v=0
108947 On ch=1 n=48 v=0
108960 On ch=1 n=48 v=96
108960 On ch=1 n=52 v=96
108960 On ch=1 n=57 v=96
109415 On ch=1 n=48 v=0
109415 On ch=1 n=52 v=0
109415 On ch=1 n=57 v=0
109440 On ch=1 n=38 v=96
109440 On ch=1 n=50 v=96
109667 On ch=1 n=38 v=0
109667 On ch=1 n=50 v=0
109680 On ch=1 n=50 v=96
109680 On ch=1 n=54 v=96
109680 On ch=1 n=59 v=96
110135 On ch=1 n=50 v=0
110135 On ch=1 n=54 v=0
110135 On ch=1 n=59 v=0
110160 On ch=1 n=40 v=96
110160 On ch=1 n=52 v=96
110273 On ch=1 n=40 v=0
110273 On ch=1 n=52 v=0
110280 On ch=1 n=47 v=112
110393 On ch=1 n=47 v=0
110400 On ch=1 n=52 v=96
110513 On ch=1 n=52 v=0
110520 On ch=1 n=55 v=95
110633 On ch=1 n=55 v=0
110640 On ch=1 n=59 v=93
110753 On ch=1 n=59 v=0
110760 On ch=1 n=64 v=92
110873 On ch=1 n=64 v=0
110880 On ch=1 n=67 v=90
111221 On ch=1 n=67 v=0
111240 On ch=1 n=66 v=85
111353 On ch=1 n=66 v=0
111360 On ch=1 n=64 v=84
111587 On ch=1 n=64 v=0
111600 On ch=1 n=62 v=80
111827 On ch=1 n=62 v=0
111840 On ch=1 n=67 v=80
112067 On ch=1 n=67 v=0
112080 On ch=1 n=71 v=80
112307 On ch=1 n=71 v=0
112320 On ch=1 n=74 v=96
112320 On ch=1 n=69 v=80
112889 On ch=1 n=69 v=0
112920 On ch=1 n=67 v=80
113033 On ch=1 n=67 v=0
113039 On ch=1 n=74 v=0
113040 On ch=1 n=67 v=80
113399 On ch=1 n=67 v=0
113760 On ch=1 n=55 v=80
113760 On ch=1 n=62 v=80
114119 On ch=1 n=55 v=0
114119 On ch=1 n=62 v=0
114480 On ch=1 n=67 v=80
114839 On ch=1 n=67 v=0
115200 On ch=1 n=55 v=80
115200 On ch=1 n=62 v=80
115559 On ch=1 n=55 v=0
115559 On ch=1 n=62 v=0
115920 On ch=1 n=67 v=80
116279 On ch=1 n=67 v=0
116640 On ch=1 n=43 v=80
116640 On ch=1 n=50 v=80
116999 On ch=1 n=43 v=0
116999 On ch=1 n=50 v=0
117360 On ch=1 n=67 v=80
117719 On ch=1 n=67 v=0
118080 On ch=1 n=43 v=80
118080 On ch=1 n=50 v=80
118439 On ch=1 n=43 v=0
118439 On ch=1 n=50 v=0
119040 On ch=1 n=50 v=80
119267 On ch=1 n=50 v=0
119280 On ch=1 n=59 v=80
119507 On ch=1 n=59 v=0
119520 On ch=1 n=55 v=80
119520 On ch=1 n=31 v=80
119520 On ch=1 n=38 v=80
119759 On ch=1 n=55 v=0
119760 On ch=1 n=50 v=80
119879 On ch=1 n=31 v=0
119879 On ch=1 n=38 v=0
119999 On ch=1 n=50 v=0
120000 On ch=1 n=47 v=80
120239 On ch=1 n=47 v=0
120240 On ch=1 n=43 v=80
120240 On ch=1 n=31 v=80
121607 On ch=1 n=43 v=0
121607 On ch=1 n=31 v=0
121608 Meta TrkEnd
TrkEnd
